<svg width="29" height="40" viewBox="0 0 29 40" fill="none" xmlns="http://www.w3.org/2000/svg">
<path d="M20 40C14.6957 40 9.60859 37.8929 5.85786 34.1421C2.10713 30.3914 -1.10609e-06 25.3043 -8.74228e-07 20C-6.42368e-07 14.6957 2.10714 9.60859 5.85786 5.85786C9.60859 2.10714 14.6957 -3.05156e-07 20 -8.74228e-07L20 7.2C16.6052 7.2 13.3495 8.54857 10.949 10.949C8.54857 13.3495 7.2 16.6052 7.2 20C7.2 23.3948 8.54857 26.6505 10.949 29.051C13.3495 31.4514 16.6052 32.8 20 32.8L20 40Z" fill="#0FBA68"/>
<path d="M20 29C15.0294 29 11 24.9706 11 20C11 15.0294 15.0294 11 20 11C24.9706 11 29 15.0294 29 20C29 24.9706 24.9706 29 20 29ZM20 16.1009C17.8466 16.1009 16.1009 17.8466 16.1009 20C16.1009 22.1534 17.8466 23.8991 20 23.8991C22.1534 23.8991 23.8991 22.1534 23.8991 20C23.8991 17.8466 22.1534 16.1009 20 16.1009Z" fill="#EAD621"/>
</svg>
